<?xml version="1.0" encoding="utf-8"?>
<!-- Generator: Adobe Illustrator 21.0.0, SVG Export Plug-In . SVG Version: 6.00 Build 0)  -->
<svg version="1.1" id="Layer_1" xmlns="http://www.w3.org/2000/svg" xmlns:xlink="http://www.w3.org/1999/xlink" x="0px" y="0px" width="110" height="36"
	 viewBox="0 0 150 36" xml:space="preserve">
<style type="text/css">
	.st0{fill:#0071BC;}
	.st1{fill:#FFFFFF;}
</style>
<title>ALN</title>
<rect x="0.1" y="22.7" class="st0" width="117.3" height="0.9"/>
<path class="st1" d="M1.5,16.1h1.1c0.5,0,0.9-0.3,1-0.7l0.3-1l0.4-1.2l0.2-0.4l0.1-0.4h6.9l0.1,0.3l0.1,0.2l0.2,0.8l0.6,1.8
	c0,0.1,0.1,0.3,0.2,0.4c0.2,0.2,0.5,0.4,0.8,0.4h2.6L9.9,0H6.5C5.8,1.7,1.1,13.7,0.2,16.1H1.5z M5.5,9.9c0.3-1.1,2.6-7,2.6-7
	l2.8,7.4H5.4L5.5,9.9z"/>
<path class="st1" d="M100.1,3.7h2.4c0.2,0,0.4,0,0.6,0.2c0.2,0.1,0.3,0.4,0.4,0.6c0.4,1.5,0.8,2.9,1.1,4.4c0.2,0.9,0.5,1.8,0.7,2.8
	c0,0.2,0.1,0.4,0.1,0.6l0.1-0.1l1.4-4.7c0.3-1,0.6-2,0.9-2.9c0.1-0.5,0.6-0.8,1.1-0.8h0.8c0.4,0,0.9,0.3,0.9,0.7l2.2,7.1
	c0.1,0.2,0.1,0.4,0.2,0.6l0.1-0.2c0.3-1.1,0.5-2.2,0.8-3.3c0.4-1.4,0.7-2.8,1.1-4.3c0-0.2,0.2-0.5,0.4-0.6c0.1-0.1,0.3-0.2,0.5-0.2
	h2.4l-3.9,12.5h-2.6l-2.6-8.4h-0.1l-2.6,8.3H104L100.1,3.7z"/>
<path class="st1" d="M79.3,16.1v-2.4h-6.7V0h-3.2v16.1C69.8,16.1,78.5,16.1,79.3,16.1z"/>
<path class="st1" d="M52.6,13.3h-4.8c0,0.1-0.1,0.2-0.1,0.2c-0.2,0.6-0.4,1.2-0.6,1.8c-0.1,0.5-0.6,0.8-1.1,0.8h-2.2l4.8-12.5h3
	l4.8,12.5h-2.2c-0.5,0-0.9-0.3-1-0.7l-0.6-1.8L52.6,13.3z M51.9,11.3l-1.7-5.1c-0.2,0.3-1.7,4.9-1.7,5.1
	C48.6,11.3,51.9,11.3,51.9,11.3z"/>
<path class="st1" d="M97,16.1h-2.3c-0.4,0-0.7-0.3-0.8-0.7l-0.6-1.9l-0.1-0.3h-4.8c0,0.1-0.1,0.2-0.1,0.2c-0.2,0.6-0.4,1.2-0.6,1.8
	c-0.1,0.5-0.6,0.8-1.1,0.8h-2.2l4.8-12.5h3L97,16.1z M89,11.4h3.4l-1.7-5.1L89,11.4z"/>
<path class="st1" d="M29.2,4.9c-0.3,0.5-0.5,1-0.8,1.4c-0.2,0.3-0.6,0.4-0.9,0.3l0,0l0,0c-0.2-0.1-0.4-0.2-0.6-0.3
	c-0.5-0.3-1.1-0.4-1.6-0.4c-0.3,0-0.5,0.1-0.8,0.2c-0.4,0.2-0.7,0.6-0.7,1.1c0,0.3,0.1,0.5,0.3,0.7c0.2,0.2,0.4,0.3,0.7,0.4
	c0.5,0.2,1.1,0.4,1.6,0.6c0.4,0.1,0.8,0.3,1.2,0.5c0.9,0.4,1.5,1.2,1.7,2.2c0.4,2.1-0.9,4.1-2.9,4.5c-1.3,0.3-2.6,0.2-3.8-0.2
	c-0.5-0.2-1-0.5-1.5-0.8c-0.2-0.1-0.3-0.2-0.5-0.4c0-0.1,0.1-0.1,0.1-0.2l0.7-1.1c0.2-0.4,0.7-0.5,1.1-0.3l0,0
	c0.2,0.1,0.5,0.3,0.7,0.4c0.5,0.3,1,0.4,1.5,0.5c0.4,0,0.7,0,1.1-0.1c0.5-0.2,0.8-0.6,0.8-1.1c0.1-0.5-0.1-0.9-0.5-1.1
	c-0.3-0.2-0.7-0.4-1.1-0.5c-0.7-0.2-1.4-0.4-2.1-0.7c-0.8-0.3-1.3-1-1.6-1.8C20.8,6.9,21.5,5,23,4.2c0.6-0.3,1.3-0.5,2-0.6
	c1.2-0.1,2.5,0.2,3.6,0.8C28.8,4.5,29,4.7,29.2,4.9L29.2,4.9z"/>
<path class="st1" d="M35.4,3.6h2.8c0.1,0.2,0.1,12,0,12.5h-2.8C35.4,15.9,35.3,4.2,35.4,3.6z"/>
<path class="st1" d="M0.8,30.5c0.1,0,0.2,0.1,0.2,0.1l4.6,6v-6.2h0.9v8H5.9c-0.1,0-0.1,0-0.2,0s-0.1-0.1-0.2-0.2l-4.6-6v6.2H0v-8
	h0.6C0.6,30.4,0.7,30.4,0.8,30.5z"/>
<path class="st1" d="M23.5,30.4v0.9h-3.8v2.6h3.1v0.8h-3.1v2.7h3.8v0.9h-4.9v-8L23.5,30.4L23.5,30.4z"/>
<path class="st1" d="M40.7,30.4v0.9h-2.6v7.1H37v-7.1h-2.6v-0.9C34.4,30.4,40.7,30.4,40.7,30.4z"/>
<path class="st1" d="M51.1,30.4H52c0.1,0,0.2,0,0.2,0.1c0.1,0,0.1,0.1,0.1,0.2l1.6,5.5c0,0.1,0,0.2,0.1,0.3c0,0.1,0,0.2,0.1,0.4
	l0.1-0.4c0-0.1,0.1-0.2,0.1-0.3l1.9-5.5c0-0.1,0.1-0.1,0.1-0.2c0.1-0.1,0.2-0.1,0.2-0.1h0.3c0.1,0,0.2,0,0.2,0.1
	c0.1,0,0.1,0.1,0.1,0.2l1.9,5.6c0.1,0.2,0.1,0.4,0.2,0.7l0.1-0.3c0-0.1,0-0.2,0.1-0.3l1.7-5.5c0-0.1,0.1-0.1,0.1-0.2
	c0.1-0.1,0.2-0.1,0.2-0.1h0.8l-2.5,8h-1l-2-6.1c0-0.1-0.1-0.3-0.1-0.4v0.2v0.2l-2,6.1h-1L51.1,30.4z"/>
<path class="st1" d="M80.8,34.4c0,0.5-0.1,1.1-0.3,1.6c-0.2,0.5-0.4,0.9-0.8,1.3c-0.4,0.4-0.8,0.6-1.2,0.8c-1,0.4-2.2,0.4-3.2,0
	c-0.5-0.2-0.9-0.5-1.2-0.8c-0.4-0.4-0.6-0.8-0.8-1.3c-0.4-1-0.4-2.2,0-3.2c0.2-0.5,0.4-0.9,0.8-1.3s0.8-0.6,1.2-0.8
	c1-0.4,2.2-0.4,3.2,0c0.5,0.2,0.9,0.5,1.2,0.8c0.4,0.4,0.6,0.8,0.8,1.3C80.8,33.3,80.9,33.9,80.8,34.4z M79.7,34.4
	c0-0.4-0.1-0.9-0.2-1.3c-0.1-0.4-0.3-0.7-0.6-1c-0.2-0.3-0.6-0.5-0.9-0.6c-0.8-0.3-1.6-0.3-2.3,0c-0.3,0.1-0.6,0.3-0.9,0.6
	c-0.3,0.3-0.5,0.6-0.6,1c-0.3,0.8-0.3,1.7,0,2.6c0.1,0.4,0.3,0.7,0.6,1c0.2,0.3,0.6,0.5,0.9,0.6c0.8,0.3,1.6,0.3,2.3,0
	c0.3-0.1,0.6-0.3,0.9-0.6s0.5-0.6,0.6-1C79.7,35.3,79.8,34.8,79.7,34.4L79.7,34.4L79.7,34.4z"/>
<path class="st1" d="M93.7,35.1v3.3h-1.1v-8h2.2c0.4,0,0.9,0,1.3,0.1c0.3,0.1,0.6,0.2,0.9,0.4c0.2,0.2,0.4,0.4,0.5,0.7
	c0.1,0.3,0.2,0.6,0.2,0.9c0,0.3,0,0.5-0.1,0.8c-0.1,0.2-0.2,0.5-0.4,0.7c-0.2,0.2-0.4,0.4-0.6,0.5c-0.3,0.1-0.5,0.2-0.8,0.3
	c0.1,0.1,0.3,0.2,0.4,0.3l2.3,3.2h-1c-0.2,0-0.3-0.1-0.4-0.2L95,35.3c-0.1-0.1-0.1-0.1-0.2-0.2C94.7,35,94.6,35,94.4,35L93.7,35.1
	L93.7,35.1z M93.7,34.3h1.2c0.3,0,0.6,0,0.8-0.1c0.2-0.1,0.4-0.2,0.6-0.3s0.3-0.3,0.4-0.5s0.1-0.4,0.1-0.6c0-0.4-0.1-0.8-0.5-1.1
	c-0.4-0.3-0.9-0.4-1.4-0.4h-1.2V34.3L93.7,34.3L93.7,34.3z"/>
<path class="st1" d="M111,33.9h0.4c0.1,0,0.2,0,0.3,0c0.1,0,0.2-0.1,0.2-0.2l2.7-3c0.1-0.1,0.1-0.1,0.2-0.2c0.1,0,0.2-0.1,0.3-0.1
	h0.9l-3,3.4l-0.2,0.2c-0.1,0.1-0.1,0.1-0.2,0.1c0.1,0,0.2,0.1,0.3,0.2c0.1,0.1,0.2,0.2,0.2,0.2l3.2,3.8h-1.2l-0.1-0.1l-0.2-0.2
	l-2.7-3.2l-0.1-0.1l-0.1-0.1H111v3.7h-1v-8h1V33.9z"/>
</svg>
